<?xml version="1.0" encoding="UTF-8" standalone="no"?>
<!-- Generator: Adobe Illustrator 19.0.0, SVG Export Plug-In . SVG Version: 6.00 Build 0)  -->

<svg
   xmlns:dc="http://purl.org/dc/elements/1.1/"
   xmlns:cc="http://creativecommons.org/ns#"
   xmlns:rdf="http://www.w3.org/1999/02/22-rdf-syntax-ns#"
   xmlns:svg="http://www.w3.org/2000/svg"
   xmlns="http://www.w3.org/2000/svg"
   xmlns:sodipodi="http://sodipodi.sourceforge.net/DTD/sodipodi-0.dtd"
   xmlns:inkscape="http://www.inkscape.org/namespaces/inkscape"
   version="1.1"
   id="Capa_1"
   x="0px"
   y="0px"
   viewBox="0 0 512 512"
   style="enable-background:new 0 0 512 512;"
   xml:space="preserve"
   sodipodi:docname="data_type.svg"
   inkscape:version="0.92.4 (5da689c313, 2019-01-14)"><metadata
   id="metadata148"><rdf:RDF><cc:Work
       rdf:about=""><dc:format>image/svg+xml</dc:format><dc:type
         rdf:resource="http://purl.org/dc/dcmitype/StillImage" /></cc:Work></rdf:RDF></metadata><defs
   id="defs146" /><sodipodi:namedview
   pagecolor="#ffffff"
   bordercolor="#666666"
   borderopacity="1"
   objecttolerance="10"
   gridtolerance="10"
   guidetolerance="10"
   inkscape:pageopacity="0"
   inkscape:pageshadow="2"
   inkscape:window-width="1366"
   inkscape:window-height="705"
   id="namedview144"
   showgrid="false"
   inkscape:zoom="1.0507812"
   inkscape:cx="256"
   inkscape:cy="256"
   inkscape:window-x="-8"
   inkscape:window-y="-8"
   inkscape:window-maximized="1"
   inkscape:current-layer="Capa_1" />
<path
   style="fill:#303C42;"
   d="M507.48,301.267l0.155-0.069L415.698,95.563C407.115,76.385,388.01,64,367.01,64H144.99  c-21,0-40.104,12.385-48.688,31.563L4.365,301.198l0.155,0.069C1.717,306.947,0,313.249,0,320v85.333  C0,428.865,19.135,448,42.667,448h426.667C492.865,448,512,428.865,512,405.333V320C512,313.249,510.283,306.947,507.48,301.267z"
   id="path96" />
<path
   style="fill:#E6E6E6;"
   d="M490.667,405.333c0,11.76-9.573,21.333-21.333,21.333H42.667c-11.76,0-21.333-9.573-21.333-21.333  V320c0-11.76,9.573-21.333,21.333-21.333h426.667c11.76,0,21.333,9.573,21.333,21.333V405.333z"
   id="path98" />
<path
   style="opacity:0.1;enable-background:new    ;"
   d="M469.333,298.667H448v10.667C448,350.57,414.57,384,373.333,384h-352  v21.333c0,11.76,9.573,21.333,21.333,21.333h426.667c11.76,0,21.333-9.573,21.333-21.333V320  C490.667,308.24,481.094,298.667,469.333,298.667z"
   id="path100" />
<path
   style="fill:#F2F2F2;"
   d="M115.781,104.271c5.146-11.5,16.615-18.938,29.208-18.938H367.01  c12.594,0,24.063,7.438,29.208,18.938l77.576,173.513c-1.487-0.158-2.934-0.451-4.461-0.451H42.667  c-1.527,0-2.974,0.293-4.461,0.451L115.781,104.271z"
   id="path102" />
<circle
   style="fill:#303C42;"
   cx="426.667"
   cy="362.667"
   r="21.333"
   id="circle104" />
<linearGradient
   id="SVGID_1_"
   gradientUnits="userSpaceOnUse"
   x1="-44.1513"
   y1="637.7974"
   x2="-22.4139"
   y2="627.6612"
   gradientTransform="matrix(21.3333 0 0 -21.3333 996.3334 13791.667)">
	<stop
   offset="0"
   style="stop-color:#FFFFFF;stop-opacity:0.2"
   id="stop106" />
	<stop
   offset="1"
   style="stop-color:#FFFFFF;stop-opacity:0"
   id="stop108" />
</linearGradient>
<path
   style="fill:url(#SVGID_1_);"
   d="M507.48,301.267l0.155-0.069L415.698,95.563C407.115,76.385,388.01,64,367.01,64H144.99  c-21,0-40.104,12.385-48.688,31.563L4.365,301.198l0.155,0.069C1.717,306.947,0,313.249,0,320v85.333  C0,428.865,19.135,448,42.667,448h426.667C492.865,448,512,428.865,512,405.333V320C512,313.249,510.283,306.947,507.48,301.267z"
   id="path111" />
<g
   id="g113">
</g>
<g
   id="g115">
</g>
<g
   id="g117">
</g>
<g
   id="g119">
</g>
<g
   id="g121">
</g>
<g
   id="g123">
</g>
<g
   id="g125">
</g>
<g
   id="g127">
</g>
<g
   id="g129">
</g>
<g
   id="g131">
</g>
<g
   id="g133">
</g>
<g
   id="g135">
</g>
<g
   id="g137">
</g>
<g
   id="g139">
</g>
<g
   id="g141">
</g>
<g
   id="g5098"
   transform="matrix(1.1023109,0,0,1.1023109,160.24424,48.979333)"><path
     style="fill:none;stroke:#000000;stroke-width:45;stroke-linecap:butt;stroke-linejoin:miter;stroke-miterlimit:4;stroke-dasharray:none;stroke-opacity:1"
     d="M 97.8338,192.46689 H 319.10758"
     id="path109"
     sodipodi:nodetypes="cc"
     inkscape:connector-curvature="0" /><path
     id="path109-3"
     d="M 208.47069,191.09033 V 420.04544"
     style="fill:none;stroke:#000000;stroke-width:45;stroke-linecap:butt;stroke-linejoin:miter;stroke-miterlimit:4;stroke-dasharray:none;stroke-opacity:1"
     sodipodi:nodetypes="cc"
     inkscape:connector-curvature="0" /></g></svg>