<?xml version="1.0" encoding="UTF-8" standalone="no"?>
<svg
   xmlns:dc="http://purl.org/dc/elements/1.1/"
   xmlns:cc="http://creativecommons.org/ns#"
   xmlns:rdf="http://www.w3.org/1999/02/22-rdf-syntax-ns#"
   xmlns:svg="http://www.w3.org/2000/svg"
   xmlns="http://www.w3.org/2000/svg"
   xmlns:sodipodi="http://sodipodi.sourceforge.net/DTD/sodipodi-0.dtd"
   xmlns:inkscape="http://www.inkscape.org/namespaces/inkscape"
   inkscape:version="0.92.4 (5da689c313, 2019-01-14)"
   sodipodi:docname="object_type.svg"
   xml:space="preserve"
   style="enable-background:new 0 0 512 512;"
   viewBox="0 0 512 512"
   y="0px"
   x="0px"
   id="Capa_1"
   version="1.1"><metadata
   id="metadata1307"><rdf:RDF><cc:Work
       rdf:about=""><dc:format>image/svg+xml</dc:format><dc:type
         rdf:resource="http://purl.org/dc/dcmitype/StillImage" /><dc:title /></cc:Work></rdf:RDF></metadata><defs
   id="defs1305" /><sodipodi:namedview
   inkscape:current-layer="g964"
   inkscape:window-maximized="1"
   inkscape:window-y="-8"
   inkscape:window-x="-8"
   inkscape:cy="212.91322"
   inkscape:cx="212.39553"
   inkscape:zoom="0.78168445"
   showgrid="false"
   id="namedview1303"
   inkscape:window-height="705"
   inkscape:window-width="1366"
   inkscape:pageshadow="2"
   inkscape:pageopacity="0"
   guidetolerance="10"
   gridtolerance="10"
   objecttolerance="10"
   borderopacity="1"
   bordercolor="#666666"
   pagecolor="#ffffff" />
<polygon
   id="polygon1254"
   points="136,346 27.074,321.537 16,286 136,226 256,286 243.497,322.251 "
   style="fill:#1DE8F1;" />
<polygon
   id="polygon1256"
   points="136,512 16,452 16,286 136,346 166,390.154 166,468.889 "
   style="fill:#00D0FF;" />
<polygon
   id="polygon1258"
   points="256,452 136,512 136,346 256,286 "
   style="fill:#00BBFF;" />
<polygon
   id="polygon1260"
   points="376,346 267.074,321.537 256,286 376,226 496,286 483.497,322.251 "
   style="fill:#FF0B69;" />
<polygon
   id="polygon1262"
   points="376,512 256,452 256,286 376,346 406,390.154 406,468.889 "
   style="fill:#DD025B;" />
<polygon
   id="polygon1264"
   points="496,452 376,512 376,346 496,286 "
   style="fill:#9E0A48;" />
<polygon
   id="polygon1266"
   points="256,120 147.074,95.537 136,60 256,0 376,60 363.497,96.251 "
   style="fill:#7986E8;" />
<polygon
   id="polygon1268"
   points="256,286 136,226 136,60 256,120 286,163.154 286,242.889 "
   style="fill:#6E77E5;" />
<polygon
   id="polygon1270"
   points="376,226 256,286 256,120 376,60 "
   style="fill:#4C5CE1;" />
<g
   id="g1272">
</g>
<g
   id="g1274">
</g>
<g
   id="g1276">
</g>
<g
   id="g1278">
</g>
<g
   id="g1280">
</g>
<g
   id="g1282">
</g>
<g
   id="g1284">
</g>
<g
   id="g1286">
</g>
<g
   id="g1288">
</g>
<g
   id="g1290">
</g>
<g
   id="g1292">
</g>
<g
   id="g1294">
</g>
<g
   id="g1296">
</g>
<g
   id="g1298">
</g>
<g
   id="g1300">
</g>
<g
   id="g964"
   transform="translate(47.52931,88.75635)"><g
     id="g5098"
     transform="matrix(1.1023109,0,0,1.1023109,112.71493,-39.777017)"><path
       style="fill:none;stroke:#000000;stroke-width:45;stroke-linecap:butt;stroke-linejoin:miter;stroke-miterlimit:4;stroke-dasharray:none;stroke-opacity:1"
       d="M 97.8338,192.46689 H 319.10758"
       id="path109"
       sodipodi:nodetypes="cc"
       inkscape:connector-curvature="0" /><path
       id="path109-3"
       d="M 208.47069,191.09033 V 420.04544"
       style="fill:none;stroke:#000000;stroke-width:45;stroke-linecap:butt;stroke-linejoin:miter;stroke-miterlimit:4;stroke-dasharray:none;stroke-opacity:1"
       sodipodi:nodetypes="cc"
       inkscape:connector-curvature="0" /></g></g></svg>