<?xml version="1.0" encoding="UTF-8" standalone="no"?>
<!-- Generator: Adobe Illustrator 19.1.0, SVG Export Plug-In . SVG Version: 6.00 Build 0)  -->

<svg
   xmlns:dc="http://purl.org/dc/elements/1.1/"
   xmlns:cc="http://creativecommons.org/ns#"
   xmlns:rdf="http://www.w3.org/1999/02/22-rdf-syntax-ns#"
   xmlns:svg="http://www.w3.org/2000/svg"
   xmlns="http://www.w3.org/2000/svg"
   xmlns:sodipodi="http://sodipodi.sourceforge.net/DTD/sodipodi-0.dtd"
   xmlns:inkscape="http://www.inkscape.org/namespaces/inkscape"
   version="1.1"
   id="Capa_1"
   x="0px"
   y="0px"
   viewBox="0 0 487.958 487.958"
   style="enable-background:new 0 0 487.958 487.958;"
   xml:space="preserve"
   sodipodi:docname="reference_type.svg"
   inkscape:version="0.92.4 (5da689c313, 2019-01-14)"><metadata
   id="metadata1105"><rdf:RDF><cc:Work
       rdf:about=""><dc:format>image/svg+xml</dc:format><dc:type
         rdf:resource="http://purl.org/dc/dcmitype/StillImage" /></cc:Work></rdf:RDF></metadata><defs
   id="defs1103" /><sodipodi:namedview
   pagecolor="#ffffff"
   bordercolor="#666666"
   borderopacity="1"
   objecttolerance="10"
   gridtolerance="10"
   guidetolerance="10"
   inkscape:pageopacity="0"
   inkscape:pageshadow="2"
   inkscape:window-width="1366"
   inkscape:window-height="705"
   id="namedview1101"
   showgrid="false"
   inkscape:zoom="1.1025539"
   inkscape:cx="243.979"
   inkscape:cy="243.979"
   inkscape:window-x="-8"
   inkscape:window-y="-8"
   inkscape:window-maximized="1"
   inkscape:current-layer="Capa_1" />
<g
   id="g1068"
   style="fill:#648b00;fill-opacity:1;fill-rule:nonzero;stroke:none;stroke-opacity:1">
	<path
   d="M483.058,215.613l-215.5-177.6c-4-3.3-9.6-4-14.3-1.8c-4.7,2.2-7.7,7-7.7,12.2v93.6c-104.6,3.8-176.5,40.7-213.9,109.8   c-32.2,59.6-31.9,130.2-31.6,176.9c0,3.8,0,7.4,0,10.8c0,6.1,4.1,11.5,10.1,13.1c1.1,0.3,2.3,0.4,3.4,0.4c4.8,0,9.3-2.5,11.7-6.8   c73-128.7,133.1-134.9,220.2-135.2v93.3c0,5.2,3,10,7.8,12.2s10.3,1.5,14.4-1.8l215.4-178.2c3.1-2.6,4.9-6.4,4.9-10.4   S486.158,218.213,483.058,215.613z M272.558,375.613v-78.1c0-3.6-1.4-7-4-9.5c-2.5-2.5-6-4-9.5-4c-54.4,0-96.1,1.5-136.6,20.4   c-35,16.3-65.3,44-95.2,87.5c1.2-39.7,6.4-87.1,28.1-127.2c34.4-63.6,101-95.1,203.7-96c7.4-0.1,13.4-6.1,13.4-13.5v-78.2   l180.7,149.1L272.558,375.613z"
   id="path1066"
   style="fill:#648b00;fill-opacity:1;fill-rule:nonzero;stroke:none;stroke-opacity:1" />
</g>
<g
   id="g1070">
</g>
<g
   id="g1072">
</g>
<g
   id="g1074">
</g>
<g
   id="g1076">
</g>
<g
   id="g1078">
</g>
<g
   id="g1080">
</g>
<g
   id="g1082">
</g>
<g
   id="g1084">
</g>
<g
   id="g1086">
</g>
<g
   id="g1088">
</g>
<g
   id="g1090">
</g>
<g
   id="g1092">
</g>
<g
   id="g1094">
</g>
<g
   id="g1096">
</g>
<g
   id="g1098">
</g>
<g
   id="g5098"
   transform="matrix(1.1023109,0,0,1.1023109,136.20224,24.937341)"><path
     style="fill:none;stroke:#000000;stroke-width:45;stroke-linecap:butt;stroke-linejoin:miter;stroke-miterlimit:4;stroke-dasharray:none;stroke-opacity:1"
     d="M 97.8338,192.46689 H 319.10758"
     id="path109"
     sodipodi:nodetypes="cc"
     inkscape:connector-curvature="0" /><path
     id="path109-3"
     d="M 208.47069,191.09033 V 420.04544"
     style="fill:none;stroke:#000000;stroke-width:45;stroke-linecap:butt;stroke-linejoin:miter;stroke-miterlimit:4;stroke-dasharray:none;stroke-opacity:1"
     sodipodi:nodetypes="cc"
     inkscape:connector-curvature="0" /></g></svg>