<?xml version="1.0" encoding="UTF-8" standalone="no"?>
<svg
   xmlns:dc="http://purl.org/dc/elements/1.1/"
   xmlns:cc="http://creativecommons.org/ns#"
   xmlns:rdf="http://www.w3.org/1999/02/22-rdf-syntax-ns#"
   xmlns:svg="http://www.w3.org/2000/svg"
   xmlns="http://www.w3.org/2000/svg"
   xmlns:sodipodi="http://sodipodi.sourceforge.net/DTD/sodipodi-0.dtd"
   xmlns:inkscape="http://www.inkscape.org/namespaces/inkscape"
   inkscape:version="1.0 (6e3e5246a0, 2020-05-07)"
   sodipodi:docname="server.svg"
   id="svg111"
   version="1.1"
   width="480pt"
   viewBox="-112 0 480 480"
   height="480pt">
  <metadata
     id="metadata117">
    <rdf:RDF>
      <cc:Work
         rdf:about="">
        <dc:format>image/svg+xml</dc:format>
        <dc:type
           rdf:resource="http://purl.org/dc/dcmitype/StillImage" />
      </cc:Work>
    </rdf:RDF>
  </metadata>
  <defs
     id="defs115" />
  <sodipodi:namedview
     inkscape:current-layer="g152"
     inkscape:window-maximized="1"
     inkscape:window-y="27"
     inkscape:window-x="0"
     inkscape:cy="286.15873"
     inkscape:cx="429.71954"
     inkscape:zoom="0.546875"
     showgrid="false"
     id="namedview113"
     inkscape:window-height="713"
     inkscape:window-width="1366"
     inkscape:pageshadow="2"
     inkscape:pageopacity="0"
     guidetolerance="10"
     gridtolerance="10"
     objecttolerance="10"
     borderopacity="1"
     bordercolor="#666666"
     pagecolor="#ffffff" />
  <g
     transform="matrix(1.0789715,0,0,0.88356608,-10.108352,27.944141)"
     id="g133">
    <g
       id="g169">
      <g
         id="g152">
        <path
           d="m 24,8 h 208 c 8.83594,0 16,7.164062 16,16 v 432 c 0,8.83594 -7.16406,16 -16,16 H 24 C 15.164062,472 8,464.83594 8,456 V 24 C 8,15.164062 15.164062,8 24,8 Z m 0,0"
           fill="#dce1ea"
           id="path83" />
        <path
           style="fill:#333333"
           d="m 248,200 h -24 c -8.83594,0 -16,-7.16406 -16,-16 H 48 c 0,8.83594 -7.164062,16 -16,16 H 8 V 24 C 8,15.164062 15.164062,8 24,8 h 208 c 8.83594,0 16,7.164062 16,16 z m 0,0"
           fill="#333333"
           id="path85" />
        <path
           style="fill:#b3b3b3"
           d="m 40,88 h 176 v 64 H 40 Z m 0,0"
           fill="#dce1ea"
           id="path87" />
        <path
           style="fill:#b3b3b3"
           d="M 40,40 H 216 V 96 H 40 Z m 0,0"
           fill="#bec3d1"
           id="path89" />
        <path
           style="fill:#b3b3b3"
           d="m 128,296 c 13.25391,0 24,10.74609 24,24 0,13.25391 -10.74609,24 -24,24 -13.25391,0 -24,-10.74609 -24,-24 0,-13.25391 10.74609,-24 24,-24 z m 0,0"
           fill="#bec3d1"
           id="path91" />
        <path
           style="fill:#b3b3b3"
           d="m 128,376 c 8.83594,0 16,7.16406 16,16 0,8.83594 -7.16406,16 -16,16 -8.83594,0 -16,-7.16406 -16,-16 0,-8.83594 7.16406,-16 16,-16 z m 0,0"
           fill="#9196a9"
           id="path93" />
        <path
           d="M 256,24 C 256,10.746094 245.25391,0 232,0 H 24 C 10.746094,0 0,10.746094 0,24 v 432 c 0,13.25391 10.746094,24 24,24 h 208 c 13.25391,0 24,-10.74609 24,-24 z M 240,432 H 192 V 272 h 48 z M 16,432 V 272 H 64 V 432 Z M 80,272 h 96 V 432 H 80 Z M 16,256 v -48 h 16 c 10.167969,-0.0117 19.230469,-6.41797 22.632812,-16 H 201.36719 c 3.40234,9.58203 12.46484,15.98828 22.63281,16 h 16 v 48 z M 24,16 h 208 c 4.41797,0 8,3.582031 8,8 v 168 h -16 c -4.41797,0 -8,-3.58203 -8,-8 0,-4.41797 -3.58203,-8 -8,-8 H 48 c -4.417969,0 -8,3.58203 -8,8 0,4.41797 -3.582031,8 -8,8 H 16 V 24 c 0,-4.417969 3.582031,-8 8,-8 z M 232,464 H 24 c -4.417969,0 -8,-3.58203 -8,-8 v -8 h 224 v 8 c 0,4.41797 -3.58203,8 -8,8 z m 0,0"
           id="path95" />
        <path
           d="m 128,288 c -17.67187,0 -32,14.32812 -32,32 0,17.67187 14.32813,32 32,32 17.67187,0 32,-14.32813 32,-32 0,-17.67188 -14.32813,-32 -32,-32 z m 0,48 c -8.83594,0 -16,-7.16406 -16,-16 0,-8.83594 7.16406,-16 16,-16 8.83594,0 16,7.16406 16,16 0,8.83594 -7.16406,16 -16,16 z m 0,0"
           id="path97" />
        <path
           d="m 128,368 c -13.25391,0 -24,10.74609 -24,24 0,13.25391 10.74609,24 24,24 13.25391,0 24,-10.74609 24,-24 0,-13.25391 -10.74609,-24 -24,-24 z m 0,32 c -4.41797,0 -8,-3.58203 -8,-8 0,-4.41797 3.58203,-8 8,-8 4.41797,0 8,3.58203 8,8 0,4.41797 -3.58203,8 -8,8 z m 0,0"
           id="path99" />
        <path
           d="m 168,224 h 32 v 16 h -32 z m 0,0"
           id="path101" />
        <path
           d="m 56,224 h 32 v 16 H 56 Z m 0,0"
           id="path103" />
        <path
           d="m 106.32031,226.32031 c -1.46093,1.53125 -2.28906,3.5625 -2.32031,5.67969 0.0117,1.04687 0.23047,2.07812 0.64063,3.03906 0.40625,0.96875 0.97656,1.86328 1.67968,2.64063 3.15625,3.09375 8.20313,3.09375 11.35938,0 0.73047,-0.77735 1.32422,-1.66797 1.76172,-2.64063 0.38281,-0.96484 0.57422,-2 0.55859,-3.03906 0.0195,-3.25 -1.92969,-6.1875 -4.93359,-7.43359 -3,-1.2461 -6.45703,-0.55469 -8.7461,1.7539 z m 0,0"
           id="path105" />
        <path
           d="m 138.32031,226.32031 c -1.46094,1.53125 -2.28906,3.5625 -2.32031,5.67969 -0.0273,1.05078 0.19141,2.08984 0.64062,3.03906 0.40625,0.96875 0.97657,1.86328 1.67969,2.64063 3.15625,3.09375 8.20313,3.09375 11.35938,0 0.70312,-0.77735 1.27343,-1.67188 1.67968,-2.64063 0.44922,-0.94922 0.66797,-1.98828 0.64063,-3.03906 0.0195,-3.25 -1.92969,-6.1875 -4.93359,-7.43359 -3,-1.2461 -6.45704,-0.55469 -8.7461,1.7539 z m 0,0"
           id="path107" />
        <path
           d="m 40,160 h 176 c 4.41797,0 8,-3.58203 8,-8 V 40 c 0,-4.417969 -3.58203,-8 -8,-8 H 40 c -4.417969,0 -8,3.582031 -8,8 v 112 c 0,4.41797 3.582031,8 8,8 z M 208,144 H 48 V 104 H 208 Z M 48,48 H 208 V 88 H 48 Z m 0,0"
           id="path109" />
      </g>
    </g>
  </g>
</svg>
