<?xml version="1.0" encoding="UTF-8" standalone="no"?>
<svg
   xmlns:dc="http://purl.org/dc/elements/1.1/"
   xmlns:cc="http://creativecommons.org/ns#"
   xmlns:rdf="http://www.w3.org/1999/02/22-rdf-syntax-ns#"
   xmlns:svg="http://www.w3.org/2000/svg"
   xmlns="http://www.w3.org/2000/svg"
   xmlns:sodipodi="http://sodipodi.sourceforge.net/DTD/sodipodi-0.dtd"
   xmlns:inkscape="http://www.inkscape.org/namespaces/inkscape"
   inkscape:version="1.0 (6e3e5246a0, 2020-05-07)"
   sodipodi:docname="trash.svg"
   version="1.1"
   width="512"
   viewBox="0 0 24 24"
   height="512"
   enable-background="new 0 0 24 24"
   id="_x31__x2C_5_px">
  <metadata
     id="metadata186">
    <rdf:RDF>
      <cc:Work
         rdf:about="">
        <dc:format>image/svg+xml</dc:format>
        <dc:type
           rdf:resource="http://purl.org/dc/dcmitype/StillImage" />
      </cc:Work>
    </rdf:RDF>
  </metadata>
  <defs
     id="defs184" />
  <sodipodi:namedview
     inkscape:current-layer="_x31__x2C_5_px"
     inkscape:window-maximized="1"
     inkscape:window-y="27"
     inkscape:window-x="0"
     inkscape:cy="256"
     inkscape:cx="91.836431"
     inkscape:zoom="1.0507812"
     showgrid="false"
     id="namedview182"
     inkscape:window-height="713"
     inkscape:window-width="1366"
     inkscape:pageshadow="2"
     inkscape:pageopacity="0"
     guidetolerance="10"
     gridtolerance="10"
     objecttolerance="10"
     borderopacity="1"
     bordercolor="#666666"
     pagecolor="#ffffff" />
  <g
     transform="translate(-0.1717998,0.35065032)"
     id="g204">
    <g
       id="g151"
       transform="matrix(0.80204145,0,0,0.88453544,2.5473024,1.0349244)">
      <path
         d="M 18.25,23.25 H 5.75 c -1.105,0 -2,-0.895 -2,-2 V 7.75 h 16.5 v 13.5 c 0,1.105 -0.895,2 -2,2 z"
         fill="#90a4ae"
         id="path149" />
    </g>
    <g
       id="g155"
       transform="matrix(0.80204145,0,0,0.88453544,2.5473024,1.0349244)">
      <path
         d="M 22.25,7.75 H 1.75 v -2 c 0,-1.105 0.895,-2 2,-2 h 16.5 c 1.105,0 2,0.895 2,2 z"
         fill="#607d8b"
         id="path153" />
    </g>
    <g
       id="g159"
       transform="matrix(0.80204145,0,0,0.88453544,2.5473024,1.0349244)">
      <path
         d="M 18.25,24 H 5.75 C 4.233,24 3,22.767 3,21.25 V 7.75 C 3,7.336 3.336,7 3.75,7 h 16.5 C 20.664,7 21,7.336 21,7.75 v 13.5 C 21,22.767 19.767,24 18.25,24 Z M 4.5,8.5 v 12.75 c 0,0.689 0.561,1.25 1.25,1.25 h 12.5 c 0.689,0 1.25,-0.561 1.25,-1.25 V 8.5 Z"
         id="path157" />
    </g>
    <g
       id="g163"
       transform="matrix(0.80204145,0,0,0.88453544,2.5473024,1.0349244)">
      <path
         d="M 22.25,8.5 H 1.75 C 1.336,8.5 1,8.164 1,7.75 v -2 C 1,4.233 2.233,3 3.75,3 h 16.5 C 21.767,3 23,4.233 23,5.75 v 2 C 23,8.164 22.664,8.5 22.25,8.5 Z M 2.5,7 h 19 V 5.75 C 21.5,5.061 20.939,4.5 20.25,4.5 H 3.75 C 3.061,4.5 2.5,5.061 2.5,5.75 Z"
         id="path161" />
    </g>
    <g
       id="g167"
       transform="matrix(0.80204145,0,0,0.88453544,2.5473024,1.0349244)">
      <path
         d="M 15.25,4.5 H 8.75 C 8.336,4.5 8,4.164 8,3.75 v -2 C 8,0.785 8.785,0 9.75,0 h 4.5 C 15.215,0 16,0.785 16,1.75 v 2 C 16,4.164 15.664,4.5 15.25,4.5 Z M 9.5,3 h 5 V 1.75 C 14.5,1.612 14.388,1.5 14.25,1.5 H 9.75 C 9.612,1.5 9.5,1.612 9.5,1.75 Z"
         id="path165" />
    </g>
    <g
       id="g171"
       transform="matrix(0.80204145,0,0,0.88453544,2.5473024,1.0349244)">
      <path
         d="M 7.75,20 C 7.336,20 7,19.664 7,19.25 v -7.5 C 7,11.336 7.336,11 7.75,11 8.164,11 8.5,11.336 8.5,11.75 v 7.5 C 8.5,19.664 8.164,20 7.75,20 Z"
         id="path169" />
    </g>
    <g
       id="g175"
       transform="matrix(0.80204145,0,0,0.88453544,2.5473024,1.0349244)">
      <path
         d="m 12,20 c -0.414,0 -0.75,-0.336 -0.75,-0.75 v -7.5 C 11.25,11.336 11.586,11 12,11 c 0.414,0 0.75,0.336 0.75,0.75 v 7.5 C 12.75,19.664 12.414,20 12,20 Z"
         id="path173" />
    </g>
    <g
       id="g179"
       transform="matrix(0.80204145,0,0,0.88453544,2.5473024,1.0349244)">
      <path
         d="M 16.25,20 C 15.836,20 15.5,19.664 15.5,19.25 v -7.5 C 15.5,11.336 15.836,11 16.25,11 16.664,11 17,11.336 17,11.75 v 7.5 C 17,19.664 16.664,20 16.25,20 Z"
         id="path177" />
    </g>
  </g>
</svg>
