<?xml version="1.0" encoding="iso-8859-1"?>
<!-- Generator: Adobe Illustrator 19.0.0, SVG Export Plug-In . SVG Version: 6.00 Build 0)  -->
<svg version="1.1" id="Capa_1" xmlns="http://www.w3.org/2000/svg" xmlns:xlink="http://www.w3.org/1999/xlink" x="0px" y="0px"
	 viewBox="0 0 512 512" style="enable-background:new 0 0 512 512;" xml:space="preserve">
<g>
	<rect x="230.4" y="157.859" style="fill:#78B9EB;" width="51.2" height="34.133"/>
	<polygon style="fill:#78B9EB;" points="307.2,157.859 307.2,123.725 204.8,123.725 204.8,157.859 230.4,157.859 281.6,157.859 	"/>
</g>
<path style="fill:#ED1C24;" d="M366.933,123.725c9.429,0,17.067-7.637,17.067-17.067s-7.637-17.067-17.067-17.067H145.067
	c-9.429,0-17.067,7.637-17.067,17.067s7.637,17.067,17.067,17.067H366.933z"/>
<path style="fill:#0A87EB;" d="M128,251.725c-9.395,0.068-16.998,7.671-17.067,17.067v136.533c0,9.429,7.637,17.067,17.067,17.067
	c9.429,0,17.067-7.637,17.067-17.067V268.792C145.041,259.38,137.412,251.751,128,251.725z"/>
<polygon style="fill:#78B9EB;" points="324.267,268.792 324.267,226.125 187.733,226.125 187.733,268.792 145.067,268.792 
	145.067,405.325 366.933,405.325 366.933,268.792 "/>
<g>
	<path style="fill:#0A87EB;" d="M341.333,209.059c-0.026-9.412-7.654-17.041-17.067-17.067H187.733
		c-9.395,0.068-16.998,7.671-17.067,17.067c0.026,9.412,7.654,17.041,17.067,17.067h136.533
		C333.679,226.1,341.308,218.471,341.333,209.059z"/>
	<path style="fill:#0A87EB;" d="M384,251.725c-9.412,0.026-17.041,7.654-17.067,17.067v136.533
		c0.026,9.412,7.654,17.041,17.067,17.067c9.395-0.068,16.998-7.671,17.067-17.067V268.792
		C401.041,259.38,393.412,251.751,384,251.725z"/>
</g>
<g>
	<rect x="8.533" y="268.792" style="fill:#78B9EB;" width="102.4" height="136.533"/>
	<rect x="401.067" y="268.792" style="fill:#78B9EB;" width="102.4" height="136.533"/>
</g>
<path style="fill:#231F20;" d="M512,260.259H408.03c-4.625-13.269-19.132-20.284-32.401-15.659
	c-7.339,2.551-13.099,8.32-15.659,15.659H332.8v-27.17c13.303-4.685,20.292-19.268,15.607-32.572
	c-3.61-10.24-13.286-17.075-24.141-17.058h-34.133v-17.067H307.2c4.71,0,8.533-3.823,8.533-8.533v-25.6h51.2
	c14.14,0,25.6-11.46,25.6-25.6s-11.46-25.6-25.6-25.6H145.067c-14.14,0-25.6,11.46-25.6,25.6s11.46,25.6,25.6,25.6h51.2v25.6
	c0,4.71,3.823,8.533,8.533,8.533h17.067v17.067h-34.133c-14.106,0.077-25.523,11.494-25.6,25.6
	c0.043,10.812,6.878,20.429,17.067,24.03v27.17h-27.17c-3.601-10.189-13.218-17.024-24.03-17.067
	c-10.82,0.034-20.437,6.869-24.047,17.067H0v153.6h103.97c4.625,13.269,19.132,20.284,32.401,15.659
	c7.339-2.551,13.099-8.32,15.659-15.659h207.94c3.601,10.189,13.218,17.024,24.03,17.067c10.82-0.034,20.446-6.869,24.047-17.067
	H512V260.259z M136.533,106.659c0-4.71,3.823-8.533,8.533-8.533h221.867c4.71,0,8.533,3.823,8.533,8.533
	c0,4.71-3.823,8.533-8.533,8.533H145.067C140.356,115.192,136.533,111.369,136.533,106.659z M213.333,132.259h85.333v17.067h-85.333
	V132.259z M238.933,166.392h34.133v17.067h-34.133V166.392z M181.82,202.983c1.553-1.596,3.686-2.483,5.914-2.458h136.533
	c4.71,0,8.533,3.823,8.533,8.533s-3.823,8.533-8.533,8.533H187.733c-4.71,0-8.533-3.823-8.533-8.533
	C179.2,206.763,180.147,204.562,181.82,202.983z M17.067,277.325H102.4v119.467H17.067V277.325z M128,413.859
	c-4.71,0-8.533-3.823-8.533-8.533V268.792c0-2.304,0.947-4.497,2.62-6.076c1.553-1.596,3.686-2.483,5.914-2.458
	c4.71,0,8.533,3.823,8.533,8.533v136.533C136.533,410.036,132.71,413.859,128,413.859z M153.6,277.325h34.133
	c4.71,0,8.533-3.823,8.533-8.533v-34.133h119.467v34.133c0,4.71,3.823,8.533,8.533,8.533H358.4v119.467H153.6V277.325z M384,413.859
	c-4.71,0-8.533-3.823-8.533-8.533V268.792c0-4.71,3.823-8.533,8.533-8.533s8.533,3.823,8.533,8.533v136.533
	c0,2.295-0.939,4.497-2.611,6.076C388.369,412.997,386.227,413.884,384,413.859z M494.933,396.792H409.6V277.325h85.333V396.792z"/>
<g>
</g>
<g>
</g>
<g>
</g>
<g>
</g>
<g>
</g>
<g>
</g>
<g>
</g>
<g>
</g>
<g>
</g>
<g>
</g>
<g>
</g>
<g>
</g>
<g>
</g>
<g>
</g>
<g>
</g>
</svg>
