<?xml version="1.0" encoding="UTF-8" standalone="no"?>
<svg
   xmlns:dc="http://purl.org/dc/elements/1.1/"
   xmlns:cc="http://creativecommons.org/ns#"
   xmlns:rdf="http://www.w3.org/1999/02/22-rdf-syntax-ns#"
   xmlns:svg="http://www.w3.org/2000/svg"
   xmlns="http://www.w3.org/2000/svg"
   xmlns:sodipodi="http://sodipodi.sourceforge.net/DTD/sodipodi-0.dtd"
   xmlns:inkscape="http://www.inkscape.org/namespaces/inkscape"
   inkscape:version="0.92.4 (5da689c313, 2019-01-14)"
   sodipodi:docname="variable.svg"
   xml:space="preserve"
   style="enable-background:new 0 0 512.002 512.002;"
   viewBox="0 0 512.002 512.002"
   y="0px"
   x="0px"
   id="Capa_1"
   version="1.1"><metadata
   id="metadata163"><rdf:RDF><cc:Work
       rdf:about=""><dc:format>image/svg+xml</dc:format><dc:type
         rdf:resource="http://purl.org/dc/dcmitype/StillImage" /><dc:title></dc:title></cc:Work></rdf:RDF></metadata><defs
   id="defs161" /><sodipodi:namedview
   inkscape:current-layer="Capa_1"
   inkscape:window-maximized="1"
   inkscape:window-y="-8"
   inkscape:window-x="-8"
   inkscape:cy="256.001"
   inkscape:cx="256.001"
   inkscape:zoom="1.0507771"
   showgrid="false"
   id="namedview159"
   inkscape:window-height="705"
   inkscape:window-width="1366"
   inkscape:pageshadow="2"
   inkscape:pageopacity="0"
   guidetolerance="10"
   gridtolerance="10"
   objecttolerance="10"
   borderopacity="1"
   bordercolor="#666666"
   pagecolor="#ffffff" />
<polygon
   id="polygon124"
   points="16,112.001 16,400.001 358.144,400.001 496,256.001 358.144,112.001 "
   style="fill:#2196F3;" />
<path
   style="fill:#003350;fill-opacity:1"
   id="path126"
   d="M358.144,416.001H16c-8.837,0-16-7.163-16-16v-288c0-8.837,7.163-16,16-16h342.144c4.372-0.009,8.558,1.771,11.584,4.928  l137.824,144c5.933,6.189,5.933,15.955,0,22.144l-137.824,144C366.702,414.229,362.517,416.01,358.144,416.001z M32,384.001h319.328  l122.528-128l-122.528-128H32V384.001z" />
<g
   id="g128">
</g>
<g
   id="g130">
</g>
<g
   id="g132">
</g>
<g
   id="g134">
</g>
<g
   id="g136">
</g>
<g
   id="g138">
</g>
<g
   id="g140">
</g>
<g
   id="g142">
</g>
<g
   id="g144">
</g>
<g
   id="g146">
</g>
<g
   id="g148">
</g>
<g
   id="g150">
</g>
<g
   id="g152">
</g>
<g
   id="g154">
</g>
<g
   id="g156">
</g>
</svg>