<?xml version="1.0" encoding="UTF-8" standalone="no"?>
<!-- Generator: Adobe Illustrator 19.0.0, SVG Export Plug-In . SVG Version: 6.00 Build 0)  -->

<svg
   xmlns:dc="http://purl.org/dc/elements/1.1/"
   xmlns:cc="http://creativecommons.org/ns#"
   xmlns:rdf="http://www.w3.org/1999/02/22-rdf-syntax-ns#"
   xmlns:svg="http://www.w3.org/2000/svg"
   xmlns="http://www.w3.org/2000/svg"
   xmlns:sodipodi="http://sodipodi.sourceforge.net/DTD/sodipodi-0.dtd"
   xmlns:inkscape="http://www.inkscape.org/namespaces/inkscape"
   version="1.1"
   id="Capa_1"
   x="0px"
   y="0px"
   viewBox="0 0 468.293 468.293"
   style="enable-background:new 0 0 468.293 468.293;"
   xml:space="preserve"
   sodipodi:docname="folder.svg"
   inkscape:version="0.92.4 (5da689c313, 2019-01-14)"><metadata
   id="metadata205"><rdf:RDF><cc:Work
       rdf:about=""><dc:format>image/svg+xml</dc:format><dc:type
         rdf:resource="http://purl.org/dc/dcmitype/StillImage" /><dc:title></dc:title></cc:Work></rdf:RDF></metadata><defs
   id="defs203" /><sodipodi:namedview
   pagecolor="#ffffff"
   bordercolor="#666666"
   borderopacity="1"
   objecttolerance="10"
   gridtolerance="10"
   guidetolerance="10"
   inkscape:pageopacity="0"
   inkscape:pageshadow="2"
   inkscape:window-width="1366"
   inkscape:window-height="705"
   id="namedview201"
   showgrid="false"
   inkscape:zoom="1.1488534"
   inkscape:cx="234.1465"
   inkscape:cy="234.1465"
   inkscape:window-x="-8"
   inkscape:window-y="-8"
   inkscape:window-maximized="1"
   inkscape:current-layer="Capa_1" />
<path
   style="fill:#FCD462;"
   d="M443.317,413.9H24.976C11.182,413.9,0,402.718,0,388.924V79.368  c0-13.794,11.182-24.976,24.976-24.976h118.096c9.023,0,17.345,4.867,21.769,12.732l13.773,24.487  c4.423,7.865,12.745,12.732,21.769,12.732h242.936c13.794,0,24.976,11.182,24.976,24.976v259.605  C468.293,402.718,457.111,413.9,443.317,413.9z"
   id="path164" />
<path
   style="fill:#F6C358;"
   d="M24.976,413.9h418.341c13.794,0,24.976-11.182,24.976-24.976V129.32  c0-13.794-11.182-24.976-24.976-24.976H262.782c-9.023,0-17.345,4.867-21.769,12.732l-13.773,24.487  c-4.423,7.865-12.745,12.732-21.769,12.732H24.976C11.182,154.295,0,165.477,0,179.271v209.653C0,402.718,11.182,413.9,24.976,413.9  z"
   id="path166" />
<path
   style="fill:#FCD462;"
   d="M453.559,106.59c1.414,3.132,2.245,6.582,2.245,10.242v259.604c0,13.793-11.182,24.976-24.976,24.976  H12.488c-3.66,0-7.11-0.831-10.242-2.245c3.916,8.671,12.597,14.733,22.73,14.733h418.341c13.794,0,24.976-11.182,24.976-24.976  V129.32C468.293,119.186,462.232,110.506,453.559,106.59z"
   id="path168" />
<g
   id="g170">
</g>
<g
   id="g172">
</g>
<g
   id="g174">
</g>
<g
   id="g176">
</g>
<g
   id="g178">
</g>
<g
   id="g180">
</g>
<g
   id="g182">
</g>
<g
   id="g184">
</g>
<g
   id="g186">
</g>
<g
   id="g188">
</g>
<g
   id="g190">
</g>
<g
   id="g192">
</g>
<g
   id="g194">
</g>
<g
   id="g196">
</g>
<g
   id="g198">
</g>
</svg>