<?xml version="1.0" encoding="UTF-8" standalone="no"?>
<svg
   xmlns:dc="http://purl.org/dc/elements/1.1/"
   xmlns:cc="http://creativecommons.org/ns#"
   xmlns:rdf="http://www.w3.org/1999/02/22-rdf-syntax-ns#"
   xmlns:svg="http://www.w3.org/2000/svg"
   xmlns="http://www.w3.org/2000/svg"
   xmlns:sodipodi="http://sodipodi.sourceforge.net/DTD/sodipodi-0.dtd"
   xmlns:inkscape="http://www.inkscape.org/namespaces/inkscape"
   height="384pt"
   viewBox="0 0 384 384"
   width="384pt"
   version="1.1"
   id="svg239"
   sodipodi:docname="method.svg"
   inkscape:version="0.92.4 (5da689c313, 2019-01-14)">
  <metadata
     id="metadata245">
    <rdf:RDF>
      <cc:Work
         rdf:about="">
        <dc:format>image/svg+xml</dc:format>
        <dc:type
           rdf:resource="http://purl.org/dc/dcmitype/StillImage" />
        <dc:title></dc:title>
      </cc:Work>
    </rdf:RDF>
  </metadata>
  <defs
     id="defs243" />
  <sodipodi:namedview
     pagecolor="#ffffff"
     bordercolor="#666666"
     borderopacity="1"
     objecttolerance="10"
     gridtolerance="10"
     guidetolerance="10"
     inkscape:pageopacity="0"
     inkscape:pageshadow="2"
     inkscape:window-width="1366"
     inkscape:window-height="705"
     id="namedview241"
     showgrid="false"
     inkscape:zoom="1.0507813"
     inkscape:cx="256"
     inkscape:cy="256"
     inkscape:window-x="-8"
     inkscape:window-y="-8"
     inkscape:window-maximized="1"
     inkscape:current-layer="svg239" />
  <path
     d="m192 32v-32c-44.832031 0-83.167969 32.007812-91.183594 76.113281l-18.167968 99.886719h-42.648438v32h36.832031l-17.128906 94.167969c-5.246094 28.878906-30.351563 49.832031-59.703125 49.832031v32c44.832031 0 83.167969-32.007812 91.183594-76.113281l18.167968-99.886719h34.648438v-32h-28.832031l17.128906-94.167969c5.246094-28.878906 30.351563-49.832031 59.703125-49.832031zm0 0"
     id="path231" />
  <path
     d="m208 96-12.800781-9.601562c-1.109375 1.480468-27.199219 37.058593-27.199219 105.601562s26.089844 104.121094 27.199219 105.601562l25.59375-19.203124c-.199219-.269532-20.792969-29.328126-20.792969-86.398438 0-57.054688 20.664062-86.207031 20.871094-86.503906zm0 0"
     id="path233" />
  <path
     d="m331.199219 105.601562c.207031.269532 20.800781 29.328126 20.800781 86.398438 0 57.054688-20.664062 86.207031-20.871094 86.503906l12.871094 9.496094 12.800781 9.601562c1.121094-1.488281 27.199219-37.058593 27.199219-105.601562s-26.089844-104.121094-27.199219-105.601562zm0 0"
     id="path235" />
  <path
     d="m291.0625 142.585938-19.0625 26.214843-19.0625-26.214843-25.875 18.828124 25.152344 34.585938-25.152344 34.585938 25.875 18.828124 19.0625-26.214843 19.0625 26.214843 25.875-18.828124-25.152344-34.585938 25.152344-34.585938zm0 0"
     id="path237" />
</svg>
