<?xml version="1.0" encoding="UTF-8" standalone="no"?>
<svg
   xmlns:dc="http://purl.org/dc/elements/1.1/"
   xmlns:cc="http://creativecommons.org/ns#"
   xmlns:rdf="http://www.w3.org/1999/02/22-rdf-syntax-ns#"
   xmlns:svg="http://www.w3.org/2000/svg"
   xmlns="http://www.w3.org/2000/svg"
   xmlns:sodipodi="http://sodipodi.sourceforge.net/DTD/sodipodi-0.dtd"
   xmlns:inkscape="http://www.inkscape.org/namespaces/inkscape"
   height="448pt"
   viewBox="0 0 448 448"
   width="448pt"
   version="1.1"
   id="svg4"
   sodipodi:docname="add.svg"
   inkscape:version="0.92.4 (5da689c313, 2019-01-14)">
  <metadata
     id="metadata10">
    <rdf:RDF>
      <cc:Work
         rdf:about="">
        <dc:format>image/svg+xml</dc:format>
        <dc:type
           rdf:resource="http://purl.org/dc/dcmitype/StillImage" />
        <dc:title />
      </cc:Work>
    </rdf:RDF>
  </metadata>
  <defs
     id="defs8" />
  <sodipodi:namedview
     pagecolor="#ffffff"
     bordercolor="#666666"
     borderopacity="1"
     objecttolerance="10"
     gridtolerance="10"
     guidetolerance="10"
     inkscape:pageopacity="0"
     inkscape:pageshadow="2"
     inkscape:window-width="1366"
     inkscape:window-height="705"
     id="namedview6"
     showgrid="false"
     inkscape:zoom="0.39508929"
     inkscape:cx="-125.28813"
     inkscape:cy="298.66667"
     inkscape:window-x="-8"
     inkscape:window-y="-8"
     inkscape:window-maximized="1"
     inkscape:current-layer="svg4" />
  <path
     d="M 363.55933,193.66102 H 260.40679 c -3.35092,0 -6.0678,-2.71688 -6.0678,-6.0678 V 84.440686 c 0,-16.754585 -13.5844,-30.338983 -30.33898,-30.338983 -16.75459,0 -30.33899,13.584398 -30.33899,30.338983 V 187.59322 c 0,3.35092 -2.71688,6.0678 -6.06779,6.0678 H 84.440693 c -16.75459,0 -30.33899,13.5844 -30.33899,30.33898 0,16.75459 13.5844,30.33899 30.33899,30.33899 H 187.59323 c 3.35091,0 6.06779,2.71688 6.06779,6.06779 v 103.15254 c 0,16.75459 13.5844,30.33899 30.33899,30.33899 16.75458,0 30.33898,-13.5844 30.33898,-30.33899 V 260.40678 c 0,-3.35091 2.71688,-6.06779 6.0678,-6.06779 h 103.15254 c 16.75458,0 30.33898,-13.5844 30.33898,-30.33899 0,-16.75458 -13.5844,-30.33898 -30.33898,-30.33898 z m 0,0"
     id="path2"
     fill="#00b300"
     inkscape:connector-curvature="0"
     style="stroke-width:0.75847459" />
</svg>
