<?xml version="1.0" encoding="UTF-8" standalone="no"?>
<svg
   xmlns:dc="http://purl.org/dc/elements/1.1/"
   xmlns:cc="http://creativecommons.org/ns#"
   xmlns:rdf="http://www.w3.org/1999/02/22-rdf-syntax-ns#"
   xmlns:svg="http://www.w3.org/2000/svg"
   xmlns="http://www.w3.org/2000/svg"
   xmlns:sodipodi="http://sodipodi.sourceforge.net/DTD/sodipodi-0.dtd"
   xmlns:inkscape="http://www.inkscape.org/namespaces/inkscape"
   height="512"
   viewBox="0 0 60 60"
   width="512"
   version="1.1"
   id="svg29"
   sodipodi:docname="level_indicator.svg"
   inkscape:version="0.92.4 (5da689c313, 2019-01-14)">
  <metadata
     id="metadata35">
    <rdf:RDF>
      <cc:Work
         rdf:about="">
        <dc:format>image/svg+xml</dc:format>
        <dc:type
           rdf:resource="http://purl.org/dc/dcmitype/StillImage" />
        <dc:title />
      </cc:Work>
    </rdf:RDF>
  </metadata>
  <defs
     id="defs33" />
  <sodipodi:namedview
     pagecolor="#ffffff"
     bordercolor="#666666"
     borderopacity="1"
     objecttolerance="10"
     gridtolerance="10"
     guidetolerance="10"
     inkscape:pageopacity="0"
     inkscape:pageshadow="2"
     inkscape:window-width="1366"
     inkscape:window-height="705"
     id="namedview31"
     showgrid="false"
     inkscape:zoom="0.65186406"
     inkscape:cx="256.7901"
     inkscape:cy="239.02978"
     inkscape:window-x="-8"
     inkscape:window-y="-8"
     inkscape:window-maximized="1"
     inkscape:current-layer="Icons" />
  <g
     id="Page-1"
     fill="none"
     fill-rule="evenodd">
    <g
       id="024---Rising-River-Levels"
       fill-rule="nonzero"
       transform="translate(0 -1)">
      <g
         id="Icons"
         transform="translate(1 1)">
        <path
           id="Shape"
           d="m58 38v12c-4.84 0-4.84 3-9.67 3s-4.84-3-9.67-3c-.9027077-.015012-1.8016303.1201643-2.66.4-2.42.81-3.27 2.6-7.01 2.6-3.72 0-4.58-1.78-6.99-2.6-.8618334-.2797393-1.764026-.4148993-2.67-.4-4.84 0-4.84 3-9.67 3s-4.83-3-9.66-3v-12c4.83 0 4.83 3 9.66 3s4.83-3 9.67-3c.905974-.0148993 1.8081666.1202607 2.67.4 2.41.82 3.27 2.6 6.99 2.6 3.74 0 4.59-1.79 7.01-2.6.8583697-.2798357 1.7572923-.415012 2.66-.4 4.83 0 4.83 3 9.67 3s4.83-3 9.67-3z"
           fill="#02a9f4" />
        <path
           id="path3"
           d="m55 38.522v11.478c-4.277 0-4.78 2.34-8.172 2.884.4960815.0788185.9976987.1176102 1.5.116 4.83 0 4.83-3 9.67-3v-12c-1.0237036-.0217326-2.0418853.1555492-2.998.522z"
           fill="#0377bc" />
        <path
           id="path5"
           d="m40 19h-4v19.4c-2.42.81-3.27 2.6-7.01 2.6-3.72 0-4.58-1.78-6.99-2.6v-19.4h-4c-.764883.0011272-1.4634238-.4340935-1.7995211-1.1211785-.3360973-.6870851-.2508833-1.5056905.2195211-2.1088215l11-14c.3788525-.48815878.9620775-.77378632 1.58-.77378632s1.2011475.28562754 1.58.77378632l11 14c.4704044.603131.5556184 1.4217364.2195211 2.1088215-.3360973.687085-1.0346381 1.1223057-1.7995211 1.1211785z"
           fill="#a7fd2f"
           style="fill:#a7fd2f;fill-opacity:1" />
        <path
           id="path7"
           d="m33 38.4c-2.056.688-2.985 2.079-5.508 2.484.4960504.0790821.9976889.1178755 1.5.116 3.74 0 4.59-1.79 7.01-2.6v-19.4h-3.002z"
           fill="#6aa11c"
           style="fill:#6aa11c;fill-opacity:1" />
        <path
           id="path9"
           d="m41.58 15.77-11-14c-.3677584-.46875443-.9253582-.74914131-1.5209517-.76480465-.5955935-.01566333-1.16716.23502795-1.5590483.68380465.025.029.056.05.08.081l11 14c.4704044.603131.5556184 1.4217364.2195211 2.1088215-.3360973.687085-1.0346381 1.1223057-1.7995211 1.1211785h3c.764883.0011272 1.4634238-.4340935 1.7995211-1.1211785.3360973-.6870851.2508833-1.5056905-.2195211-2.1088215z"
           fill="#6aa11c"
           style="fill:#6aa11c;fill-opacity:1" />
        <path
           id="path11"
           d="m36 50.4v6.6c-.0032948 1.1032019-.8967981 1.9967052-2 2h-10c-1.1032019-.0032948-1.9967052-.8967981-2-2v-6.6c2.41.82 3.27 2.6 6.99 2.6 3.74 0 4.59-1.79 7.01-2.6z"
           fill="#a7fd2f"
           style="fill:#a7fd2f;fill-opacity:1" />
        <path
           id="path13"
           d="m33 52v5c-.0032948 1.1032019-.8967981 1.9967052-2 2h3c1.1032019-.0032948 1.9967052-.8967981 2-2v-6.6c-1.0525253.4283978-2.0578822.9645882-3 1.6z"
           fill="#6aa11c"
           style="fill:#6aa11c;fill-opacity:1" />
      </g>
      <g
         id="Icons_copy"
         fill="#000">
        <path
           id="path16"
           d="m59 38c-1.917821-.0355552-3.7968399.5425506-5.363 1.65-2.5899981 1.7998993-6.0260019 1.7998993-8.616 0-3.2358247-2.1999478-7.4871753-2.1999478-10.723 0-1.2470896.9119772-2.7604616 1.3865538-4.305 1.35-1.5448253.0363999-3.058466-.4381507-4.306-1.35-1.5656062-1.1070415-3.4438589-1.6851272-5.361-1.65-1.9168011-.0349132-3.7946707.5431623-5.36 1.65-1.245756.9108573-2.7571721 1.3853716-4.3 1.35-1.54288094.0357466-3.05441475-.4388047-4.3-1.35-1.56677163-1.1085072-3.44709003-1.6866894-5.366-1.65-.55228475 0-1 .4477153-1 1s.44771525 1 1 1c1.54280666-.0352218 3.05417576.4392778 4.3 1.35 1.56547635 1.1080725 3.44439043 1.6862538 5.362 1.65 1.9165303.0351898 3.7941663-.5429217 5.359-1.65 1.2472263-.9117064 2.760504-1.3862535 4.305-1.35 1.5448253-.0363999 3.058466.4381507 4.306 1.35 1.5656062 1.1070415 3.4438589 1.6851272 5.361 1.65 1.9168604.0353337 3.7948582-.5427813 5.36-1.65 2.5888804-1.7999615 6.0241196-1.7999615 8.613 0 3.2369301 2.1999129 7.4890699 2.1999129 10.726 0 1.2482178-.9119996 2.7625371-1.3865426 4.308-1.35.5522847 0 1-.4477153 1-1s-.4477153-1-1-1z" />
        <path
           id="path18"
           d="m59 44c-1.917821-.0355552-3.7968399.5425506-5.363 1.65-2.5899981 1.7998993-6.0260019 1.7998993-8.616 0-3.2358247-2.1999478-7.4871753-2.1999478-10.723 0-1.2470896.9119772-2.7604616 1.3865538-4.305 1.35-1.5448253.0363999-3.058466-.4381507-4.306-1.35-1.5656062-1.1070415-3.4438589-1.6851272-5.361-1.65-1.9168011-.0349132-3.7946707.5431623-5.36 1.65-1.245756.9108573-2.7571721 1.3853716-4.3 1.35-1.54288094.0357466-3.05441475-.4388047-4.3-1.35-1.56677163-1.1085072-3.44709003-1.6866894-5.366-1.65-.55228475 0-1 .4477153-1 1s.44771525 1 1 1c1.54280666-.0352218 3.05417576.4392778 4.3 1.35 1.56547635 1.1080725 3.44439043 1.6862538 5.362 1.65 1.9165303.0351898 3.7941663-.5429217 5.359-1.65 1.2472263-.9117064 2.760504-1.3862535 4.305-1.35 1.5448253-.0363999 3.058466.4381507 4.306 1.35 1.5656062 1.1070415 3.4438589 1.6851272 5.361 1.65 1.9168604.0353337 3.7948582-.5427813 5.36-1.65 2.5888804-1.7999615 6.0241196-1.7999615 8.613 0 3.2369301 2.1999129 7.4890699 2.1999129 10.726 0 1.2482178-.9119996 2.7625371-1.3865426 4.308-1.35.5522847 0 1-.4477153 1-1s-.4477153-1-1-1z" />
        <path
           id="path20"
           d="m59 50c-1.917821-.0355552-3.7968399.5425506-5.363 1.65-2.5899981 1.7998993-6.0260019 1.7998993-8.616 0-3.2358247-2.1999478-7.4871753-2.1999478-10.723 0-1.2470896.9119772-2.7604616 1.3865538-4.305 1.35-1.5448253.0363999-3.058466-.4381507-4.306-1.35-1.5656062-1.1070415-3.4438589-1.6851272-5.361-1.65-1.9168011-.0349132-3.7946707.5431623-5.36 1.65-1.245756.9108573-2.7571721 1.3853716-4.3 1.35-1.54288094.0357466-3.05441475-.4388047-4.3-1.35-1.56677163-1.1085072-3.44709003-1.6866894-5.366-1.65-.55228475 0-1 .4477153-1 1s.44771525 1 1 1c1.54280666-.0352218 3.05417576.4392778 4.3 1.35 1.56547635 1.1080725 3.44439043 1.6862538 5.362 1.65 1.9165303.0351898 3.7941663-.5429217 5.359-1.65 1.2472263-.9117064 2.760504-1.3862535 4.305-1.35 1.5448253-.0363999 3.058466.4381507 4.306 1.35 1.5656062 1.1070415 3.4438589 1.6851272 5.361 1.65 1.9168604.0353337 3.7948582-.5427813 5.36-1.65 2.5888804-1.7999615 6.0241196-1.7999615 8.613 0 3.2369301 2.1999129 7.4890699 2.1999129 10.726 0 1.2482178-.9119996 2.7625371-1.3865426 4.308-1.35.5522847 0 1-.4477153 1-1s-.4477153-1-1-1z" />
        <path
           id="path22"
           d="m41 19h-4c-.5522847 0-1 .4477153-1 1v15.26c0 .5522847.4477153 1 1 1s1-.4477153 1-1v-14.26h3c1.1477122.0010569 2.1954448-.65279 2.698822-1.6842238.5033771-1.0314339.3741695-2.2596704-.332822-3.1637762l-11-14c-.5683712-.73071657-1.4422611-1.15810532-2.368-1.15810532s-1.7996288.42738875-2.368 1.15810532l-11 14.007c-.7031692.9047221-.8295675 2.1309715-.325735 3.1601079.5038326 1.0291364 1.5498866 1.6813904 2.695735 1.6808921h3v14.26c0 .5522847.4477153 1 1 1s1-.4477153 1-1v-2.279h2.148c.5522847 0 1-.4477153 1-1s-.4477153-1-1-1h-2.148v-2h5.148c.5522847 0 1-.4477153 1-1s-.4477153-1-1-1h-5.148v-2h2.148c.5522847 0 1-.4477153 1-1s-.4477153-1-1-1h-2.148v-2h5.148c.5522847 0 1-.4477153 1-1s-.4477153-1-1-1h-6.148c-.0309651.0047911-.0616703.0111324-.092.019h-3.908c-.3820573.001202-.7314106-.2153933-.9002285-.5581319s-.1275936-.7517151.1062285-1.0538681l11-14c.1960755-.23507034.4863895-.37096464.7925-.37096464s.5964245.1358943.7925.37096464l11 13.993c.2377707.3016724.2817352.7128748.1131177 1.057997-.1686174.3451221-.5200129.5631623-.9041177.561003z" />
        <path
           id="path24"
           d="m37 54.86c-.5522847 0-1 .4477153-1 1v2.14c0 .5522847-.4477153 1-1 1h-10c-.5522847 0-1-.4477153-1-1v-2.13c0-.5522847-.4477153-1-1-1s-1 .4477153-1 1v2.13c0 1.6568542 1.3431458 3 3 3h10c1.6568542 0 3-1.3431458 3-3v-2.14c0-.5522847-.4477153-1-1-1z" />
      </g>
    </g>
  </g>
</svg>
