<?xml version="1.0" encoding="UTF-8" standalone="no"?>
<!-- Generator: Adobe Illustrator 19.0.0, SVG Export Plug-In . SVG Version: 6.00 Build 0)  -->

<svg
   xmlns:dc="http://purl.org/dc/elements/1.1/"
   xmlns:cc="http://creativecommons.org/ns#"
   xmlns:rdf="http://www.w3.org/1999/02/22-rdf-syntax-ns#"
   xmlns:svg="http://www.w3.org/2000/svg"
   xmlns="http://www.w3.org/2000/svg"
   xmlns:sodipodi="http://sodipodi.sourceforge.net/DTD/sodipodi-0.dtd"
   xmlns:inkscape="http://www.inkscape.org/namespaces/inkscape"
   version="1.1"
   id="Capa_1"
   x="0px"
   y="0px"
   viewBox="0 0 512 512"
   style="enable-background:new 0 0 512 512;"
   xml:space="preserve"
   sodipodi:docname="object.svg"
   inkscape:version="0.92.4 (5da689c313, 2019-01-14)"><metadata
   id="metadata505"><rdf:RDF><cc:Work
       rdf:about=""><dc:format>image/svg+xml</dc:format><dc:type
         rdf:resource="http://purl.org/dc/dcmitype/StillImage" /><dc:title></dc:title></cc:Work></rdf:RDF></metadata><defs
   id="defs503" /><sodipodi:namedview
   pagecolor="#ffffff"
   bordercolor="#666666"
   borderopacity="1"
   objecttolerance="10"
   gridtolerance="10"
   guidetolerance="10"
   inkscape:pageopacity="0"
   inkscape:pageshadow="2"
   inkscape:window-width="1366"
   inkscape:window-height="705"
   id="namedview501"
   showgrid="false"
   inkscape:zoom="1.0507812"
   inkscape:cx="256"
   inkscape:cy="256"
   inkscape:window-x="-8"
   inkscape:window-y="-8"
   inkscape:window-maximized="1"
   inkscape:current-layer="Capa_1" />
<polygon
   style="fill:#1DE8F1;"
   points="136,346 27.074,321.537 16,286 136,226 256,286 243.497,322.251 "
   id="polygon452" />
<polygon
   style="fill:#00D0FF;"
   points="136,512 16,452 16,286 136,346 166,390.154 166,468.889 "
   id="polygon454" />
<polygon
   style="fill:#00BBFF;"
   points="256,452 136,512 136,346 256,286 "
   id="polygon456" />
<polygon
   style="fill:#FF0B69;"
   points="376,346 267.074,321.537 256,286 376,226 496,286 483.497,322.251 "
   id="polygon458" />
<polygon
   style="fill:#DD025B;"
   points="376,512 256,452 256,286 376,346 406,390.154 406,468.889 "
   id="polygon460" />
<polygon
   style="fill:#9E0A48;"
   points="496,452 376,512 376,346 496,286 "
   id="polygon462" />
<polygon
   style="fill:#7986E8;"
   points="256,120 147.074,95.537 136,60 256,0 376,60 363.497,96.251 "
   id="polygon464" />
<polygon
   style="fill:#6E77E5;"
   points="256,286 136,226 136,60 256,120 286,163.154 286,242.889 "
   id="polygon466" />
<polygon
   style="fill:#4C5CE1;"
   points="376,226 256,286 256,120 376,60 "
   id="polygon468" />
<g
   id="g470">
</g>
<g
   id="g472">
</g>
<g
   id="g474">
</g>
<g
   id="g476">
</g>
<g
   id="g478">
</g>
<g
   id="g480">
</g>
<g
   id="g482">
</g>
<g
   id="g484">
</g>
<g
   id="g486">
</g>
<g
   id="g488">
</g>
<g
   id="g490">
</g>
<g
   id="g492">
</g>
<g
   id="g494">
</g>
<g
   id="g496">
</g>
<g
   id="g498">
</g>
</svg>